<svg id="visual" viewBox="0 0 960 540" width="960" height="540" xmlns="http://www.w3.org/2000/svg" xmlns:xlink="http://www.w3.org/1999/xlink" version="1.1"><path d="M0 55L14.5 54.2C29 53.3 58 51.7 87.2 53.5C116.3 55.3 145.7 60.7 174.8 65.2C204 69.7 233 73.3 262 72.3C291 71.3 320 65.7 349 61.2C378 56.7 407 53.3 436.2 52.5C465.3 51.7 494.7 53.3 523.8 59.5C553 65.7 582 76.3 611 77.2C640 78 669 69 698 69C727 69 756 78 785.2 82.5C814.3 87 843.7 87 872.8 81.7C902 76.3 931 65.7 945.5 60.3L960 55L960 0L945.5 0C931 0 902 0 872.8 0C843.7 0 814.3 0 785.2 0C756 0 727 0 698 0C669 0 640 0 611 0C582 0 553 0 523.8 0C494.7 0 465.3 0 436.2 0C407 0 378 0 349 0C320 0 291 0 262 0C233 0 204 0 174.8 0C145.7 0 116.3 0 87.2 0C58 0 29 0 14.5 0L0 0Z" fill="#6198ff"></path><path d="M0 158L14.5 159.7C29 161.3 58 164.7 87.2 178.2C116.3 191.7 145.7 215.3 174.8 221.7C204 228 233 217 262 209.7C291 202.3 320 198.7 349 195.2C378 191.7 407 188.3 436.2 183C465.3 177.7 494.7 170.3 523.8 181C553 191.7 582 220.3 611 238.3C640 256.3 669 263.7 698 265.5C727 267.3 756 263.7 785.2 258.3C814.3 253 843.7 246 872.8 238C902 230 931 221 945.5 216.5L960 212L960 53L945.5 58.3C931 63.7 902 74.3 872.8 79.7C843.7 85 814.3 85 785.2 80.5C756 76 727 67 698 67C669 67 640 76 611 75.2C582 74.3 553 63.7 523.8 57.5C494.7 51.3 465.3 49.7 436.2 50.5C407 51.3 378 54.7 349 59.2C320 63.7 291 69.3 262 70.3C233 71.3 204 67.7 174.8 63.2C145.7 58.7 116.3 53.3 87.2 51.5C58 49.7 29 51.3 14.5 52.2L0 53Z" fill="#3c80ff"></path><path d="M0 363L14.5 355.8C29 348.7 58 334.3 87.2 341.5C116.3 348.7 145.7 377.3 174.8 387.2C204 397 233 388 262 377.2C291 366.3 320 353.7 349 349.2C378 344.7 407 348.3 436.2 355.5C465.3 362.7 494.7 373.3 523.8 373.3C553 373.3 582 362.7 611 368.2C640 373.7 669 395.3 698 397.2C727 399 756 381 785.2 372C814.3 363 843.7 363 872.8 356.7C902 350.3 931 337.7 945.5 331.3L960 325L960 210L945.5 214.5C931 219 902 228 872.8 236C843.7 244 814.3 251 785.2 256.3C756 261.7 727 265.3 698 263.5C669 261.7 640 254.3 611 236.3C582 218.3 553 189.7 523.8 179C494.7 168.3 465.3 175.7 436.2 181C407 186.3 378 189.7 349 193.2C320 196.7 291 200.3 262 207.7C233 215 204 226 174.8 219.7C145.7 213.3 116.3 189.7 87.2 176.2C58 162.7 29 159.3 14.5 157.7L0 156Z" fill="#0066ff"></path><path d="M0 460L14.5 455.5C29 451 58 442 87.2 440.2C116.3 438.3 145.7 443.7 174.8 444.5C204 445.3 233 441.7 262 438.2C291 434.7 320 431.3 349 429.7C378 428 407 428 436.2 434.2C465.3 440.3 494.7 452.7 523.8 456.2C553 459.7 582 454.3 611 454.3C640 454.3 669 459.7 698 464.2C727 468.7 756 472.3 785.2 476C814.3 479.7 843.7 483.3 872.8 480.7C902 478 931 469 945.5 464.5L960 460L960 323L945.5 329.3C931 335.7 902 348.3 872.8 354.7C843.7 361 814.3 361 785.2 370C756 379 727 397 698 395.2C669 393.3 640 371.7 611 366.2C582 360.7 553 371.3 523.8 371.3C494.7 371.3 465.3 360.7 436.2 353.5C407 346.3 378 342.7 349 347.2C320 351.7 291 364.3 262 375.2C233 386 204 395 174.8 385.2C145.7 375.3 116.3 346.7 87.2 339.5C58 332.3 29 346.7 14.5 353.8L0 361Z" fill="#0059dd"></path><path d="M0 541L14.5 541C29 541 58 541 87.2 541C116.3 541 145.7 541 174.8 541C204 541 233 541 262 541C291 541 320 541 349 541C378 541 407 541 436.2 541C465.3 541 494.7 541 523.8 541C553 541 582 541 611 541C640 541 669 541 698 541C727 541 756 541 785.2 541C814.3 541 843.7 541 872.8 541C902 541 931 541 945.5 541L960 541L960 458L945.5 462.5C931 467 902 476 872.8 478.7C843.7 481.3 814.3 477.7 785.2 474C756 470.3 727 466.7 698 462.2C669 457.7 640 452.3 611 452.3C582 452.3 553 457.7 523.8 454.2C494.7 450.7 465.3 438.3 436.2 432.2C407 426 378 426 349 427.7C320 429.3 291 432.7 262 436.2C233 439.7 204 443.3 174.8 442.5C145.7 441.7 116.3 436.3 87.2 438.2C58 440 29 449 14.5 453.5L0 458Z" fill="#004cbb"></path></svg>